<svg width="44" height="44" viewBox="0 0 44 44" fill="none" xmlns="http://www.w3.org/2000/svg">
<g id="Frame">
<path id="Vector" d="M26.125 17.875L30.25 22L26.125 26.125M17.875 26.125L13.75 22L17.875 17.875M11 37.125H33C34.094 37.125 35.1432 36.6904 35.9168 35.9168C36.6904 35.1432 37.125 34.094 37.125 33V11C37.125 9.90598 36.6904 8.85677 35.9168 8.08318C35.1432 7.3096 34.094 6.875 33 6.875H11C9.90598 6.875 8.85677 7.3096 8.08318 8.08318C7.3096 8.85677 6.875 9.90598 6.875 11V33C6.875 34.094 7.3096 35.1432 8.08318 35.9168C8.85677 36.6904 9.90598 37.125 11 37.125Z" stroke="url(#paint0_linear_1_2423)" stroke-width="1.5" stroke-linecap="round" stroke-linejoin="round"/>
</g>
<defs>
<linearGradient id="paint0_linear_1_2423" x1="6.93455" y1="6.875" x2="33.121" y2="40.3078" gradientUnits="userSpaceOnUse">
<stop stop-color="#5297F2"/>
<stop offset="1" stop-color="#0F55DD"/>
</linearGradient>
</defs>
</svg>
