<svg width="44" height="45" viewBox="0 0 44 45" fill="none" xmlns="http://www.w3.org/2000/svg">
<g id="carbon:partnership">
<path id="Vector" d="M11 12.875C9.9122 12.875 8.84883 12.5524 7.94436 11.9481C7.03989 11.3437 6.33494 10.4848 5.91866 9.47976C5.50238 8.47477 5.39346 7.3689 5.60568 6.30201C5.8179 5.23511 6.34172 4.2551 7.11091 3.48592C7.8801 2.71673 8.86011 2.1929 9.927 1.98068C10.9939 1.76846 12.0998 1.87738 13.1048 2.29367C14.1098 2.70995 14.9687 3.4149 15.5731 4.31937C16.1774 5.22384 16.5 6.28721 16.5 7.375C16.5 8.83369 15.9205 10.2326 14.8891 11.2641C13.8576 12.2955 12.4587 12.875 11 12.875ZM11 4.625C10.4561 4.625 9.92442 4.78629 9.47218 5.08846C9.01995 5.39064 8.66747 5.82013 8.45933 6.32262C8.25119 6.82512 8.19673 7.37805 8.30284 7.9115C8.40895 8.44495 8.67086 8.93495 9.05546 9.31955C9.44005 9.70414 9.93005 9.96605 10.4635 10.0722C10.9969 10.1783 11.5499 10.1238 12.0524 9.91567C12.5549 9.70753 12.9844 9.35506 13.2865 8.90282C13.5887 8.45059 13.75 7.9189 13.75 7.375C13.75 6.64566 13.4603 5.94618 12.9445 5.43046C12.4288 4.91473 11.7293 4.625 11 4.625ZM33 12.875C31.9122 12.875 30.8488 12.5524 29.9444 11.9481C29.0399 11.3437 28.3349 10.4848 27.9187 9.47976C27.5024 8.47477 27.3935 7.3689 27.6057 6.30201C27.8179 5.23511 28.3417 4.2551 29.1109 3.48592C29.8801 2.71673 30.8601 2.1929 31.927 1.98068C32.9939 1.76846 34.0998 1.87738 35.1048 2.29367C36.1098 2.70995 36.9687 3.4149 37.5731 4.31937C38.1774 5.22384 38.5 6.28721 38.5 7.375C38.5 8.83369 37.9205 10.2326 36.8891 11.2641C35.8576 12.2955 34.4587 12.875 33 12.875ZM33 4.625C32.4561 4.625 31.9244 4.78629 31.4722 5.08846C31.0199 5.39064 30.6675 5.82013 30.4593 6.32262C30.2512 6.82512 30.1967 7.37805 30.3028 7.9115C30.4089 8.44495 30.6709 8.93495 31.0555 9.31955C31.4401 9.70414 31.9301 9.96605 32.4635 10.0722C32.997 10.1783 33.5499 10.1238 34.0524 9.91567C34.5549 9.70753 34.9844 9.35506 35.2865 8.90282C35.5887 8.45059 35.75 7.9189 35.75 7.375C35.75 6.64566 35.4603 5.94618 34.9445 5.43046C34.4288 4.91473 33.7293 4.625 33 4.625ZM35.75 41.75H30.25C29.5207 41.75 28.8212 41.4603 28.3055 40.9445C27.7897 40.4288 27.5 39.7293 27.5 39V29.375H30.25V39H35.75V26.625H38.5V18.375C38.5 18.0103 38.3551 17.6606 38.0973 17.4027C37.8394 17.1449 37.4897 17 37.125 17H28.2975L22 28L15.7025 17H6.875C6.51033 17 6.16059 17.1449 5.90273 17.4027C5.64487 17.6606 5.5 18.0103 5.5 18.375V26.625H8.25V39H13.75V29.375H16.5V39C16.5 39.7293 16.2103 40.4288 15.6945 40.9445C15.1788 41.4603 14.4793 41.75 13.75 41.75H8.25C7.52065 41.75 6.82118 41.4603 6.30546 40.9445C5.78973 40.4288 5.5 39.7293 5.5 39V29.375C4.77065 29.375 4.07118 29.0853 3.55546 28.5695C3.03973 28.0538 2.75 27.3543 2.75 26.625V18.375C2.75 17.281 3.1846 16.2318 3.95818 15.4582C4.73177 14.6846 5.78098 14.25 6.875 14.25H17.2975L22 22.5L26.7025 14.25H37.125C38.219 14.25 39.2682 14.6846 40.0418 15.4582C40.8154 16.2318 41.25 17.281 41.25 18.375V26.625C41.25 27.3543 40.9603 28.0538 40.4445 28.5695C39.9288 29.0853 39.2293 29.375 38.5 29.375V39C38.5 39.7293 38.2103 40.4288 37.6945 40.9445C37.1788 41.4603 36.4793 41.75 35.75 41.75Z" fill="white"/>
</g>
</svg>
