<svg width="44" height="44" viewBox="0 0 44 44" fill="none" xmlns="http://www.w3.org/2000/svg">
<g id="lucide:book-up-2">
<g id="Group">
<path id="Vector" d="M7.33333 35.75V8.24996C7.33333 7.03438 7.81622 5.86859 8.67576 5.00905C9.5353 4.14951 10.7011 3.66663 11.9167 3.66663" stroke="white" stroke-width="3" stroke-linecap="round" stroke-linejoin="round"/>
<path id="Vector_2" d="M33 3.66663H36.6667V40.3333H11.9167C10.7011 40.3333 9.5353 39.8504 8.67576 38.9909C7.81622 38.1313 7.33333 36.9655 7.33333 35.75C7.33333 34.5344 7.81622 33.3686 8.67576 32.5091C9.5353 31.6495 10.7011 31.1666 11.9167 31.1666H36.6667M22 23.8333V12.8333" stroke="white" stroke-width="3" stroke-linecap="round" stroke-linejoin="round"/>
<path id="Vector_3" d="M16.5 18.3333L22 12.8333L27.5 18.3333M16.5 9.16663L22 3.66663L27.5 9.16663" stroke="white" stroke-width="3" stroke-linecap="round" stroke-linejoin="round"/>
</g>
</g>
</svg>
