<svg width="44" height="45" viewBox="0 0 44 45" fill="none" xmlns="http://www.w3.org/2000/svg">
<g id="material-symbols:motion-photos-auto-outline">
<path id="Vector" d="M15.2167 28.9166H17.6917L19.0667 25.1583H24.9333L26.3083 28.9166H28.875L23.2833 14.25H20.7167L15.2167 28.9166ZM19.8 23.05L21.9083 17H22.0917L24.2 23.05H19.8ZM22 40.8333C19.4639 40.8333 17.0806 40.3517 14.85 39.3886C12.6194 38.4255 10.6792 37.1196 9.02917 35.4708C7.37917 33.8208 6.07322 31.8805 5.11133 29.65C4.14945 27.4194 3.66789 25.0361 3.66667 22.5C3.66667 21.1861 3.80417 19.8948 4.07917 18.6261C4.35417 17.3575 4.75139 16.1279 5.27083 14.9375L8.1125 17.7791C7.86806 18.5736 7.67678 19.3601 7.53867 20.1386C7.40056 20.9172 7.33211 21.7043 7.33333 22.5C7.33333 26.5944 8.75417 30.0625 11.5958 32.9041C14.4375 35.7458 17.9056 37.1666 22 37.1666C26.0944 37.1666 29.5625 35.7458 32.4042 32.9041C35.2458 30.0625 36.6667 26.5944 36.6667 22.5C36.6667 18.4055 35.2458 14.9375 32.4042 12.0958C29.5625 9.25413 26.0944 7.83329 22 7.83329C21.175 7.83329 20.3726 7.90174 19.5928 8.03863C18.8131 8.17551 18.0418 8.36679 17.2792 8.61246L14.4833 5.81663C15.7056 5.26663 16.9278 4.85413 18.15 4.57913C19.3722 4.30413 20.6556 4.16663 22 4.16663C24.5361 4.16663 26.9194 4.64757 29.15 5.60946C31.3806 6.57135 33.3208 7.8779 34.9708 9.52913C36.6208 11.1791 37.9274 13.1194 38.8905 15.35C39.8536 17.5805 40.3346 19.9638 40.3333 22.5C40.3333 25.0361 39.8518 27.4194 38.8887 29.65C37.9256 31.8805 36.6196 33.8208 34.9708 35.4708C33.3208 37.1208 31.3806 38.4273 29.15 39.3905C26.9194 40.3536 24.5361 40.8345 22 40.8333ZM10.0833 13.3333C9.31945 13.3333 8.66983 13.0656 8.1345 12.5303C7.59917 11.995 7.33211 11.346 7.33333 10.5833C7.33333 9.8194 7.601 9.16979 8.13633 8.63446C8.67167 8.09913 9.32067 7.83207 10.0833 7.83329C10.8472 7.83329 11.4968 8.10096 12.0322 8.63629C12.5675 9.17163 12.8346 9.82063 12.8333 10.5833C12.8333 11.3472 12.5657 11.9968 12.0303 12.5321C11.495 13.0675 10.846 13.3345 10.0833 13.3333Z" fill="white"/>
</g>
</svg>
