<svg width="44" height="44" viewBox="0 0 44 44" fill="none" xmlns="http://www.w3.org/2000/svg">
<path d="M10.0833 12.8333C10.0833 11.6178 10.5662 10.452 11.4258 9.59243C12.2853 8.73289 13.4511 8.25 14.6667 8.25C15.8822 8.25 17.048 8.73289 17.9076 9.59243C18.7671 10.452 19.25 11.6178 19.25 12.8333C19.25 14.0489 18.7671 15.2147 17.9076 16.0742C17.048 16.9338 15.8822 17.4167 14.6667 17.4167C13.4511 17.4167 12.2853 16.9338 11.4258 16.0742C10.5662 15.2147 10.0833 14.0489 10.0833 12.8333ZM14.6667 5.5C12.7217 5.5 10.8565 6.27262 9.48121 7.64788C8.10594 9.02315 7.33332 10.8884 7.33332 12.8333C7.33332 14.7783 8.10594 16.6435 9.48121 18.0188C10.8565 19.394 12.7217 20.1667 14.6667 20.1667C16.6116 20.1667 18.4768 19.394 19.8521 18.0188C21.2274 16.6435 22 14.7783 22 12.8333C22 10.8884 21.2274 9.02315 19.8521 7.64788C18.4768 6.27262 16.6116 5.5 14.6667 5.5ZM28.4167 14.6667C28.4167 13.9373 28.7064 13.2378 29.2221 12.7221C29.7378 12.2064 30.4373 11.9167 31.1667 11.9167C31.896 11.9167 32.5955 12.2064 33.1112 12.7221C33.6269 13.2378 33.9167 13.9373 33.9167 14.6667C33.9167 15.396 33.6269 16.0955 33.1112 16.6112C32.5955 17.1269 31.896 17.4167 31.1667 17.4167C30.4373 17.4167 29.7378 17.1269 29.2221 16.6112C28.7064 16.0955 28.4167 15.396 28.4167 14.6667ZM31.1667 9.16667C29.708 9.16667 28.309 9.74613 27.2776 10.7776C26.2461 11.809 25.6667 13.208 25.6667 14.6667C25.6667 16.1254 26.2461 17.5243 27.2776 18.5558C28.309 19.5872 29.708 20.1667 31.1667 20.1667C32.6253 20.1667 34.0243 19.5872 35.0557 18.5558C36.0872 17.5243 36.6667 16.1254 36.6667 14.6667C36.6667 13.208 36.0872 11.809 35.0557 10.7776C34.0243 9.74613 32.6253 9.16667 31.1667 9.16667ZM7.79166 23.8333C6.69764 23.8333 5.64843 24.2679 4.87484 25.0415C4.10125 25.8151 3.66666 26.8643 3.66666 27.9583V28.468C3.66881 28.5955 3.67738 28.7227 3.69232 28.8493C3.84372 30.2135 4.33405 31.5181 5.11866 32.6443C6.61832 34.7857 9.48199 36.6667 14.6667 36.6667C17.1765 36.6667 19.1418 36.2267 20.6727 35.53C20.3942 34.6062 20.2292 33.652 20.1813 32.6883C18.9988 33.385 17.2572 33.9167 14.6667 33.9167C10.2263 33.9167 8.27566 32.3583 7.36999 31.0658C6.85618 30.3254 6.53312 29.4696 6.42949 28.5743C6.42396 28.5262 6.41968 28.4779 6.41666 28.4295V27.9583C6.41666 27.5937 6.56152 27.2439 6.81938 26.9861C7.07725 26.7282 7.42698 26.5833 7.79166 26.5833H21.5087C21.9652 25.7088 22.5262 24.8985 23.1752 24.1688C22.6593 23.9466 22.1034 23.8324 21.5417 23.8333H7.79166ZM42.1667 32.0833C42.1667 34.7576 41.1043 37.3223 39.2133 39.2133C37.3223 41.1043 34.7576 42.1667 32.0833 42.1667C29.4091 42.1667 26.8443 41.1043 24.9533 39.2133C23.0623 37.3223 22 34.7576 22 32.0833C22 29.4091 23.0623 26.8443 24.9533 24.9533C26.8443 23.0623 29.4091 22 32.0833 22C34.7576 22 37.3223 23.0623 39.2133 24.9533C41.1043 26.8443 42.1667 29.4091 42.1667 32.0833ZM33.1008 26.4367C33.0379 26.2153 32.9045 26.0206 32.7209 25.8819C32.5373 25.7432 32.3134 25.6681 32.0833 25.6681C31.8532 25.6681 31.6294 25.7432 31.4458 25.8819C31.2621 26.0206 31.1288 26.2153 31.0658 26.4367L30.0447 29.7147H26.7392C25.7015 29.7147 25.2725 31.097 26.1103 31.7313L28.7833 33.7572L27.7622 37.0333C27.4413 38.0618 28.5707 38.918 29.4103 38.2818L32.0833 36.2578L34.7563 38.2818C35.596 38.918 36.7253 38.0618 36.4045 37.0352L35.3833 33.7572L38.0563 31.7332C38.896 31.097 38.4652 29.7147 37.4275 29.7147H34.122L33.1008 26.4367Z" fill="#3F85EC"/>
</svg>
