<svg width="44" height="44" viewBox="0 0 44 44" fill="none" xmlns="http://www.w3.org/2000/svg">
<g id="Frame">
<path id="Vector" d="M19.25 2.75H15.125C14.031 2.75 12.9818 3.1846 12.2082 3.95818C11.4346 4.73177 11 5.78098 11 6.875V37.125C11 38.219 11.4346 39.2682 12.2082 40.0418C12.9818 40.8154 14.031 41.25 15.125 41.25H28.875C29.969 41.25 31.0182 40.8154 31.7918 40.0418C32.5654 39.2682 33 38.219 33 37.125V6.875C33 5.78098 32.5654 4.73177 31.7918 3.95818C31.0182 3.1846 29.969 2.75 28.875 2.75H24.75M19.25 2.75V5.5H24.75V2.75M19.25 2.75H24.75M19.25 37.125H24.75" stroke="white" stroke-width="1.5" stroke-linecap="round" stroke-linejoin="round"/>
</g>
</svg>
