<svg width="44" height="44" viewBox="0 0 44 44" fill="none" xmlns="http://www.w3.org/2000/svg">
<g id="ri:customer-service-2-line">
<path id="Vector" d="M36.553 14.6667H38.5C39.4724 14.6667 40.4051 15.053 41.0927 15.7406C41.7803 16.4283 42.1666 17.3609 42.1666 18.3334V25.6667C42.1666 26.6391 41.7803 27.5718 41.0927 28.2594C40.4051 28.947 39.4724 29.3334 38.5 29.3334H36.553C36.106 32.8777 34.381 36.1372 31.7015 38.5C29.0221 40.8628 25.5724 42.1666 22 42.1667V38.5C24.9174 38.5 27.7153 37.3411 29.7782 35.2782C31.8411 33.2153 33 30.4174 33 27.5V16.5C33 13.5826 31.8411 10.7847 29.7782 8.72185C27.7153 6.65895 24.9174 5.50002 22 5.50002C19.0826 5.50002 16.2847 6.65895 14.2218 8.72185C12.1589 10.7847 11 13.5826 11 16.5V29.3334H5.49998C4.52752 29.3334 3.59489 28.947 2.90725 28.2594C2.21962 27.5718 1.83331 26.6391 1.83331 25.6667V18.3334C1.83331 17.3609 2.21962 16.4283 2.90725 15.7406C3.59489 15.053 4.52752 14.6667 5.49998 14.6667H7.44698C7.89437 11.1227 9.61963 7.86369 12.299 5.50126C14.9784 3.13883 18.4278 1.83533 22 1.83533C25.5721 1.83533 29.0215 3.13883 31.7009 5.50126C34.3803 7.86369 36.1056 11.1227 36.553 14.6667ZM5.49998 18.3334V25.6667H7.33331V18.3334H5.49998ZM36.6666 18.3334V25.6667H38.5V18.3334H36.6666ZM14.2266 28.9392L16.17 25.8299C17.9173 26.9244 19.9382 27.5033 22 27.5C24.0618 27.5033 26.0827 26.9244 27.83 25.8299L29.7733 28.9392C27.4436 30.3988 24.7491 31.1709 22 31.1667C19.2508 31.171 16.5563 30.3989 14.2266 28.9392Z" fill="white"/>
</g>
</svg>
